<svg width="60" height="52" viewBox="0 0 60 52" fill="none" xmlns="http://www.w3.org/2000/svg">
<path d="M0 1.95103L10.082 5.81016L9.99743 6.0995L0 2.2736V1.95299V1.95103ZM0 1.19836L10.2808 5.13374L10.1962 5.42308L0 1.52094V1.20032V1.19836Z" fill="#FFFFFF"/>
<path d="M0 14.025L4.5137 15.5694L12.087 1.82397L52.2086 19.4403L51.5553 19.8039L12.3074 2.57078L4.75178 16.285L0 14.6584V14.0231V14.025ZM0 14.895L4.99183 16.6017L12.331 3.19246L51.2405 19.9818L50.9119 20.1656L12.4432 3.56586L5.19252 16.9712L0.00196728 15.2058V14.8969L0 14.895ZM7.08536 18.1246L5.54866 17.6007L12.5061 4.7799L50.0403 20.6485L48.6728 21.4109L33.5714 15.1159L30.3425 17.9076L22.4622 15.2039L11.237 11.5852L7.08536 18.1266V18.1246Z" fill="#FFFFFF"/>
<path d="M0 19.0297L6.9614 21.0082L10.997 15.6007L20.1877 18.1539L19.9634 18.3924L11.0934 15.9409L7.05782 21.3483L0 19.3445V19.0297Z" fill="#FFFFFF"/>
<path d="M0 18.1596L6.79612 20.0892L10.8258 14.1167L20.7642 17.1352L20.6245 17.7217L11.0344 14.8088L7.00666 20.7773L0 18.7852V18.1596Z" fill="#FFFFFF"/>
<path d="M28.0742 16.9928L33.6878 14.813L33.4576 19.2156L28.0742 16.9928Z" fill="#FFFFFF"/>
<path d="M12.5601 26.4726L23.9998 18.1424L42.9793 24.5841L42.5622 24.8167L24.0391 18.5803L12.562 27.0552V26.4745L12.5601 26.4726ZM44.0044 24.0113L23.8443 16.8775L12.5581 25.5127V26.0875L23.9584 17.5325L43.5893 24.242L44.0044 24.0113ZM32.2027 16.2598L47.2943 22.1794L46.8713 22.416L32.0925 16.6195L32.2027 16.2617V16.2598ZM31.3527 16.903L46.2652 22.7523L45.8422 22.9888L31.2425 17.2627L31.3527 16.9049V16.903Z" fill="#FFFFFF"/>
<path d="M12.5605 28.0129L23.7621 19.7101L41.7225 25.4089L38.3402 26.8477V25.9328L24.2816 21.6592L20.8501 24.7109L19.7325 24.3708L12.5605 29.7841V28.0129Z" fill="#FFFFFF"/>
<path d="M0 48.857H10.9675V35.5553L5.23581 39.9599L5.08037 40.0049L0 39.3871V48.857ZM0 38.8514L5.04692 39.4653L10.8376 35.0158L10.9694 34.9806V34.4214L5.25745 38.8104L5.0784 38.8612L0.00196728 38.2434V38.8495L0 38.8514ZM0 37.6335L5.03708 38.2454L10.8179 33.8037L10.9675 33.7646V17.0006L6.99682 22.3631L0 20.5313V37.6335ZM0.32072 22.9868L6.56001 24.0307L6.58165 24.5762L0.314817 23.5107L0.32072 22.9868ZM10.0053 21.5772L7.09127 24.6954L7.04208 23.9877L9.66293 21.2175L10.0053 21.5772ZM7.05191 39.0469V48.8551H6.64855V39.3324L7.05191 39.0469ZM7.05191 25.1959V36.1477L6.64855 36.4761V25.1959H7.05191Z" fill="#FFFFFF"/>
<path d="M10.9473 33.7705L11.0043 33.7548L14.9081 34.3883L19.8547 32.271L19.9786 32.2534L23.2881 32.6835L23.2271 33.2876L19.9825 32.8673L15.032 34.9865L14.9002 35.0041L11.0299 34.3765L10.9453 34.441V33.7724L10.9473 33.7705ZM10.9473 34.9865L11.0004 34.9728L14.912 35.6062L19.8665 33.4851L19.9766 33.4694L23.2862 33.8976L23.233 34.4274L19.9806 34.0051L15.0222 36.1282L14.9061 36.1419L11.024 35.5124L10.9473 35.571V34.9865Z" fill="#FFFFFF"/>
<path d="M24.0153 24.5369L23.2598 24.9376V48.8568H24.0153V24.5369Z" fill="#FFFFFF"/>
<path d="M32.7019 30.3277L53.1375 22.4647V21.1783L32.6724 29.3873L32.7019 30.3277Z" fill="#FFFFFF"/>
<path d="M36.1647 26.5567V26.9985L26.1279 24.6662V23.9429L36.1647 26.5567Z" fill="#FFFFFF"/>
<path d="M26.022 26.4117L26.0239 26.8125L32.9971 28.9063L36.3027 27.6141L36.3578 26.7265L32.9971 28.1556L26.022 26.4117Z" fill="#FFFFFF"/>
<path d="M26.022 48.4288V26.7617H26.3584V48.4288H26.022Z" fill="#FFFFFF"/>
<path d="M26.7642 32.6266H27.5453V48.3407H26.7642V32.6266Z" fill="#FFFFFF"/>
<path d="M26.2207 30.8555L31.551 31.7899V32.7538L26.2207 31.8173V30.8555Z" fill="#FFFFFF"/>
<path d="M30.77 32.6266H31.5512V48.3407H30.77V32.6266Z" fill="#FFFFFF"/>
<path d="M29.5639 48.3018V33.2758L26.2583 32.7245L26.3075 32.3491L29.9003 32.9473V48.3018H29.5639Z" fill="#FFFFFF"/>
<path d="M26.1143 48.8569V44.12H31.5567V48.8569H26.1143Z" fill="#FFFFFF"/>
<path d="M10.5991 17.9664L10.7428 11.816L11.1441 11.8258L10.9612 18.0446L10.5991 17.9664Z" fill="#FFFFFF"/>
<path d="M23.0021 15.2469L13.3077 25.4695L13.0342 25.1371L22.7286 14.9126L23.0021 15.2469Z" fill="#FFFFFF"/>
<path d="M7.0518 18.0113V22.5742H6.64844V17.7845L7.0518 18.0113Z" fill="#FFFFFF"/>
<path d="M5.58061 17.6165L4.44727 15.7768L4.64403 15.5598L5.92691 17.3897L5.58061 17.6165Z" fill="#FFFFFF"/>
<path d="M24.0152 21.4736L20.8198 24.6524L23.297 26.4842L24.0152 26.4432V21.4736Z" fill="#FFFFFF"/>
<path d="M36.51 25.1821V28.0735H36.2148V25.1821H36.51Z" fill="#FFFFFF"/>
<path d="M24.2809 14.1934L23.9976 22.4864L23.5981 22.5294L23.8815 14.2364L24.2809 14.1934Z" fill="#FFFFFF"/>
<path d="M35.5292 32.5581L35.4682 31.5356L33.0264 32.1456L34.0672 33.0019L35.5292 32.5581Z" fill="#FFFFFF"/>
<path d="M35.5346 30.1305L36.8214 29.7415V48.8573H36.485V30.2361L35.7393 30.4609L35.2119 48.8573H34.8774C35.0565 42.6267 35.2355 36.3962 35.4126 30.1657L35.5327 30.1285L35.5346 30.1305Z" fill="#FFFFFF"/>
<path d="M38.6294 34.2162L51.7691 30.7617V31.4127L38.6294 34.6482V34.2162Z" fill="#FFFFFF"/>
<path d="M32.7991 30.7774L32.7637 30.4959L53.3508 23.2195L58.2422 25.0689V25.804L53.2445 23.7434L32.7991 30.7774Z" fill="#FFFFFF"/>
<path d="M32.7991 31.3793L32.7637 31.0998L53.3508 24.2241L58.2422 26.0755V26.8086L53.2445 24.7481L32.7991 31.3793Z" fill="#FFFFFF"/>
<path d="M53.1372 21.1747L58.2412 22.8325V24.1091L53.1372 22.3809V21.1747Z" fill="#FFFFFF"/>
<path d="M53.0444 20.6485L42.0396 25.2681L58.2428 16.7053V22.2575L53.0444 20.6485Z" fill="#FFFFFF"/>
<path d="M58.2419 27.7781L55.9358 27.2991L52.6676 26.2395L36.7261 30.9647L38.3769 31.7389L52.0223 27.9501L58.2419 30.0556V27.7781Z" fill="#FFFFFF"/>
<path d="M53.5283 31.9424L53.6011 31.3735L58.2407 32.6971V33.4712L53.5283 31.9424Z" fill="#FFFFFF"/>
<path d="M53.3974 28.437L52.0791 28.1769L51.7544 48.8567H51.4199C51.5301 41.8129 51.6423 34.7691 51.7524 27.7253L51.9453 27.7625L53.7378 28.1163L53.5371 48.8567H53.2026L53.3993 28.437H53.3974Z" fill="#FFFFFF"/>
<path d="M38.6294 35.6473L50.2855 37.3931V36.5759L38.6294 35.0901V35.6473Z" fill="#FFFFFF"/>
<path d="M49.5808 38.4604H49.8681C50.1042 38.4604 50.299 38.6794 50.299 38.9492V48.857H49.1499V38.9492C49.1499 38.6794 49.3427 38.4604 49.5808 38.4604Z" fill="#FFFFFF"/>
<path d="M46.7825 38.1339H47.0697C47.3059 38.1339 47.5006 38.3529 47.5006 38.6227V48.857H46.3516V38.6227C46.3516 38.3529 46.5464 38.1339 46.7825 38.1339Z" fill="#FFFFFF"/>
<path d="M44.0925 37.8093H44.3798C44.6159 37.8093 44.8107 38.0283 44.8107 38.2981V48.8569H43.6616V38.2981C43.6616 38.0283 43.8564 37.8093 44.0925 37.8093Z" fill="#FFFFFF"/>
<path d="M41.5476 37.483H41.8349C42.071 37.483 42.2658 37.7039 42.2658 37.9718V48.8571H41.1167V37.9718C41.1167 37.7039 41.3095 37.483 41.5476 37.483Z" fill="#FFFFFF"/>
<path d="M39.0593 37.1562H39.3466C39.5827 37.1562 39.7775 37.3752 39.7775 37.645V48.8568H38.6284V37.645C38.6284 37.3752 38.8232 37.1562 39.0593 37.1562Z" fill="#FFFFFF"/>
<path d="M11.7448 0L9.86182 4.76624L12.036 1.09674L52.3602 19.3387L52.6514 19.1197L11.7448 0Z" fill="#FFFFFF"/>
<path d="M0 2.8092L9.15529 6.27148L4.28939 15.0298L0 13.5264V2.8092Z" fill="#FFFFFF"/>
<path d="M0 49.5139H59.0795V51.7015H0V49.5139Z" fill="#FFFFFF"/>
<path d="M56.562 39.2601H58.2423V41.4497H56.562V39.2601Z" fill="#FFFFFF"/>
</svg>
