<?xml version="1.0" encoding="UTF-8"?>
<!DOCTYPE svg PUBLIC "-//W3C//DTD SVG 1.1//EN" "http://www.w3.org/Graphics/SVG/1.1/DTD/svg11.dtd">
<!-- Creator: CorelDRAW -->
<svg xmlns="http://www.w3.org/2000/svg" xml:space="preserve" width="1.59842in" height="1.69616in" version="1.1" style="shape-rendering:geometricPrecision; text-rendering:geometricPrecision; image-rendering:optimizeQuality; fill-rule:evenodd; clip-rule:evenodd"
viewBox="0 0 364.51 386.8"
 xmlns:xlink="http://www.w3.org/1999/xlink"
 xmlns:xodm="http://www.corel.com/coreldraw/odm/2003">
 <defs>
  <style type="text/css">
   <![CDATA[
    .fil2 {fill:none}
    .fil1 {fill:#ffffff}
    .fil0 {fill:#ffffff;fill-rule:nonzero}
   ]]>
  </style>
 </defs>
 <g id="Layer_x0020_1">
  <metadata id="CorelCorpID_0Corel-Layer"/>
  <path class="fil0" d="M36.08 76.95l51.24 19.74 -0.43 1.48 -50.81 -19.57 0 -1.64zm0 -3.85l52.25 20.13 -0.43 1.48 -51.82 -19.96 0 -1.64z"/>
  <path class="fil0" d="M36.08 138.71l22.94 7.9 38.49 -70.31 203.91 90.11 -3.32 1.86 -199.47 -88.15 -38.4 70.15 -24.15 -8.32 0 -3.25zm0 4.45l25.37 8.73 37.3 -68.59 197.75 85.88 -1.67 0.94 -195.51 -84.91 -36.85 68.57 -26.38 -9.03 0 -1.58zm36.01 16.52l-7.81 -2.68 35.36 -65.58 190.76 81.17 -6.95 3.9 -76.75 -32.2 -16.41 14.28 -40.05 -13.83 -57.05 -18.51 -21.1 33.46z"/>
  <polygon class="fil0" points="36.08,164.31 71.46,174.43 91.97,146.77 138.68,159.83 137.54,161.05 92.46,148.51 71.95,176.17 36.08,165.92 "/>
  <polygon class="fil0" points="36.08,159.86 70.62,169.73 91.1,139.18 141.61,154.62 140.9,157.62 92.16,142.72 71.69,173.25 36.08,163.06 "/>
  <polygon class="fil1" points="178.76,153.89 207.29,142.74 206.12,165.26 "/>
  <path class="fil1" d="M99.91 202.38l58.14 -42.61 96.46 32.95 -2.12 1.19 -94.14 -31.9 -58.33 43.35 0 -2.97zm159.81 -12.59l-102.46 -36.49 -57.36 44.17 0 2.94 57.94 -43.76 99.77 34.32 2.11 -1.18zm-59.98 -39.65l76.7 30.28 -2.15 1.21 -75.11 -29.65 0.56 -1.83zm-4.32 3.29l75.79 29.92 -2.15 1.21 -74.2 -29.29 0.56 -1.83z"/>
  <polygon class="fil1" points="99.91,210.26 156.84,167.79 248.12,196.94 230.93,204.3 230.93,199.62 159.48,177.76 142.04,193.37 136.36,191.63 99.91,219.32 "/>
  <path class="fil1" d="M36.08 316.88l55.74 0 0 -68.04 -29.13 22.53 -0.79 0.23 -25.82 -3.16 0 48.44zm0 -51.18l25.65 3.14 29.43 -22.76 0.67 -0.18 0 -2.86 -29.03 22.45 -0.91 0.26 -25.8 -3.16 0 3.1zm0 -6.23l25.6 3.13 29.38 -22.72 0.76 -0.2 0 -85.75 -20.18 27.43 -35.56 -9.37 0 87.48zm1.63 -74.92l31.71 5.34 0.11 2.79 -31.85 -5.45 0.03 -2.68zm49.22 -7.21l-14.81 15.95 -0.25 -3.62 13.32 -14.17 1.74 1.84zm-15.01 89.36l0 50.17 -2.05 0 0 -48.71 2.05 -1.46zm0 -70.85l0 56.02 -2.05 1.68 0 -57.7 2.05 0z"/>
  <path class="fil0" d="M91.72 239.71l0.29 -0.08 19.84 3.24 25.14 -10.83 0.63 -0.09 16.82 2.2 -0.31 3.09 -16.49 -2.15 -25.16 10.84 -0.67 0.09 -19.67 -3.21 -0.43 0.33 0 -3.42zm0 6.22l0.27 -0.07 19.88 3.24 25.18 -10.85 0.56 -0.08 16.82 2.19 -0.27 2.71 -16.53 -2.16 -25.2 10.86 -0.59 0.07 -19.73 -3.22 -0.39 0.3 0 -2.99z"/>
  <polygon class="fil1" points="158.13,192.48 154.29,194.53 154.29,316.88 158.13,316.88 "/>
  <polygon class="fil1" points="202.28,222.1 306.14,181.88 306.14,175.3 202.13,217.29 "/>
  <polygon class="fil1" points="219.88,202.81 219.88,205.07 168.87,193.14 168.87,189.44 "/>
  <polygon class="fil1" points="168.33,202.07 168.34,204.12 203.78,214.83 220.58,208.22 220.86,203.68 203.78,210.99 "/>
  <polygon class="fil0" points="168.33,314.69 168.33,203.86 170.04,203.86 170.04,314.69 "/>
  <polygon class="fil1" points="172.1,233.86 176.07,233.86 176.07,314.24 172.1,314.24 "/>
  <polygon class="fil1" points="169.34,224.8 196.43,229.58 196.43,234.51 169.34,229.72 "/>
  <polygon class="fil1" points="192.46,233.86 196.43,233.86 196.43,314.24 192.46,314.24 "/>
  <polygon class="fil0" points="186.33,314.04 186.33,237.18 169.53,234.36 169.78,232.44 188.04,235.5 188.04,314.04 "/>
  <polygon class="fil1" points="168.8,316.88 168.8,292.65 196.46,292.65 196.46,316.88 "/>
  <polygon class="fil0" points="89.95,158.87 90.68,127.41 92.72,127.46 91.79,159.27 "/>
  <polygon class="fil0" points="152.98,144.96 103.71,197.25 102.32,195.55 151.59,143.25 "/>
  <polygon class="fil0" points="71.92,159.1 71.92,182.44 69.87,182.44 69.87,157.94 "/>
  <polygon class="fil0" points="64.44,157.08 58.68,147.67 59.68,146.56 66.2,155.92 "/>
  <polygon class="fil1" points="158.13,176.81 141.89,193.07 154.48,202.44 158.13,202.23 "/>
  <polygon class="fil0" points="221.63,195.78 221.63,210.57 220.13,210.57 220.13,195.78 "/>
  <polygon class="fil0" points="159.48,139.57 158.04,181.99 156.01,182.21 157.45,139.79 "/>
  <polygon class="fil1" points="216.65,233.51 216.34,228.28 203.93,231.4 209.22,235.78 "/>
  <path class="fil0" d="M216.67 221.09l6.54 -1.99 0 97.78 -1.71 0 0 -95.25 -3.79 1.15 -2.68 94.1 -1.7 0c0.91,-31.87 1.82,-63.74 2.72,-95.61l0.61 -0.19z"/>
  <polygon class="fil1" points="232.41,241.99 299.19,224.32 299.19,227.65 232.41,244.2 "/>
  <g id="_2152421833424">
   <polygon class="fil1" points="202.77,224.4 202.59,222.96 307.22,185.74 332.08,195.2 332.08,198.96 306.68,188.42 "/>
   <polygon class="fil1" points="202.77,227.48 202.59,226.05 307.22,190.88 332.08,200.35 332.08,204.1 306.68,193.56 "/>
   <polygon class="fil1" points="306.14,175.28 332.08,183.76 332.08,190.29 306.14,181.45 "/>
   <polygon class="fil1" points="305.66,172.59 249.73,196.22 332.08,152.42 332.08,180.82 "/>
   <polygon class="fil1" points="332.08,209.06 320.36,206.61 303.75,201.19 222.73,225.36 231.12,229.32 300.47,209.94 332.08,220.71 "/>
   <polygon class="fil1" points="308.13,230.36 308.5,227.45 332.08,234.22 332.08,238.18 "/>
  </g>
  <path class="fil0" d="M307.46 212.43l-6.7 -1.33 -1.65 105.78 -1.7 0c0.56,-36.03 1.13,-72.06 1.69,-108.09l0.98 0.19 9.11 1.81 -1.02 106.09 -1.7 0 1 -104.45z"/>
  <polygon class="fil1" points="232.41,249.31 291.65,258.24 291.65,254.06 232.41,246.46 "/>
  <path class="fil1" d="M288.06 263.7l1.46 0c1.2,0 2.19,1.12 2.19,2.5l0 50.68 -5.84 0 0 -50.68c0,-1.38 0.98,-2.5 2.19,-2.5z"/>
  <path class="fil1" d="M273.84 262.03l1.46 0c1.2,0 2.19,1.12 2.19,2.5l0 52.35 -5.84 0 0 -52.35c0,-1.38 0.99,-2.5 2.19,-2.5z"/>
  <path class="fil1" d="M260.17 260.37l1.46 0c1.2,0 2.19,1.12 2.19,2.5l0 54.01 -5.84 0 0 -54.01c0,-1.38 0.99,-2.5 2.19,-2.5z"/>
  <path class="fil1" d="M247.24 258.7l1.46 0c1.2,0 2.19,1.13 2.19,2.5l0 55.68 -5.84 0 0 -55.68c0,-1.37 0.98,-2.5 2.19,-2.5z"/>
  <path class="fil1" d="M234.59 257.03l1.46 0c1.2,0 2.19,1.12 2.19,2.5l0 57.35 -5.84 0 0 -57.35c0,-1.38 0.99,-2.5 2.19,-2.5z"/>
  <polygon class="fil1" points="95.77,66.97 86.2,91.35 97.25,72.58 302.19,165.89 303.67,164.77 "/>
  <polygon class="fil1" points="36.08,81.34 82.61,99.05 57.88,143.85 36.08,136.16 "/>
  <polygon class="fil1" points="36.08,320.24 336.34,320.24 336.34,331.43 36.08,331.43 "/>
  <polygon class="fil1" points="323.54,267.79 332.08,267.79 332.08,278.99 323.54,278.99 "/>
  <polygon class="fil2" points="-0,0 364.51,0 364.51,386.8 -0,386.8 "/>
 </g>
</svg>
