<svg width="98" height="89" viewBox="0 0 98 89" fill="none" xmlns="http://www.w3.org/2000/svg">
<path fill-rule="evenodd" clip-rule="evenodd" d="M97.0244 49.6732L84.6559 50.0498C79.4103 65.6974 65.1322 76.193 49.0882 76.193C32.8144 76.193 18.3846 65.3995 13.321 49.438L1.24988 50.069C6.87015 72.5928 26.5504 88.3343 49.0892 88.3343C71.7738 88.3343 91.5431 72.3899 97.0244 49.6732Z" fill="#3E4095"/>
<path fill-rule="evenodd" clip-rule="evenodd" d="M85.2565 49.8076H97.3883V65.0624H85.2565V49.8076ZM0.884949 49.8076H13.0167V65.0624H0.884949V49.8076Z" fill="#3E4095"/>
<path fill-rule="evenodd" clip-rule="evenodd" d="M7.73199 54.8677C9.10648 54.8677 10.2208 56.0176 10.2208 57.4361C10.2208 58.8545 9.10648 60.0044 7.73199 60.0044C6.35749 60.0044 5.24323 58.8545 5.24323 57.4361C5.24323 56.0176 6.35749 54.8677 7.73199 54.8677ZM90.5423 54.8677C91.9168 54.8677 93.031 56.0176 93.031 57.4361C93.031 58.8545 91.9168 60.0044 90.5423 60.0044C89.1678 60.0044 88.0535 58.8545 88.0535 57.4361C88.0535 56.0176 89.1678 54.8677 90.5423 54.8677Z" fill="#FEFEFE"/>
<path d="M16.521 68.7565L19.4696 65.5773L20.0937 66.1931L18.9325 67.445L20.1465 68.6434L21.3077 67.3915L21.9319 68.0073L18.9843 71.1865L18.3602 70.5707L19.6486 69.1805L18.4345 67.9821L17.1461 69.3723L16.522 68.7565H16.521ZM20.7491 70.0356C21.0162 69.6812 21.2921 69.4258 21.5758 69.2663C21.7852 69.1502 22.0102 69.0755 22.2489 69.0402C22.4876 69.0058 22.7106 69.0179 22.92 69.0755C23.1988 69.1522 23.4756 69.3006 23.7505 69.5207C24.2475 69.9195 24.5234 70.397 24.583 70.9533C24.6408 71.5106 24.4569 72.0729 24.0303 72.6393C23.6067 73.2017 23.1264 73.5227 22.5932 73.6025C22.0581 73.6832 21.5435 73.5237 21.0485 73.128C20.5476 72.7261 20.2678 72.2486 20.2101 71.6954C20.1524 71.1431 20.3324 70.5899 20.7501 70.0346L20.7491 70.0356ZM21.4672 70.5737C21.1698 70.9675 21.0339 71.337 21.0573 71.6822C21.0808 72.0265 21.2285 72.3082 21.4995 72.5262C21.7715 72.7443 22.0699 72.821 22.3966 72.7605C22.7234 72.6979 23.0374 72.4657 23.3416 72.0618C23.6419 71.6641 23.7818 71.2976 23.7593 70.9654C23.7378 70.6333 23.5862 70.3546 23.3054 70.1295C23.0247 69.9044 22.7234 69.8216 22.4025 69.8832C22.0806 69.9447 21.7695 70.1749 21.4672 70.5747V70.5737ZM23.2389 74.8251L25.5154 71.1048L26.2217 71.5651L26.1796 75.026L27.7058 72.5333L28.3808 72.9735L26.1033 76.6938L25.3745 76.2193L25.4097 72.8211L23.913 75.2673L23.2379 74.8271L23.2389 74.8251ZM26.8595 77.2279L28.7868 73.3026L31.6023 74.7746L31.2765 75.4379L29.2309 74.3687L28.8034 75.241L30.7052 76.2355L30.3794 76.8988L28.4776 75.9043L27.9552 76.9674L30.0752 78.0759L29.7494 78.7392L26.8595 77.2289V77.2279ZM30.6964 77.6973L31.5064 77.9396C31.4487 78.2274 31.4663 78.4636 31.5612 78.6494C31.6541 78.8351 31.8234 78.9765 32.066 79.0774C32.3223 79.1835 32.5375 79.2067 32.7107 79.1481C32.8838 79.0896 33.0003 78.9856 33.058 78.8351C33.0952 78.7382 33.0991 78.6453 33.0717 78.5535C33.0433 78.4636 32.9709 78.3657 32.8535 78.2597C32.7733 78.187 32.5845 78.0406 32.2861 77.8175C31.9026 77.5308 31.6551 77.2723 31.5446 77.0411C31.39 76.715 31.3753 76.3909 31.5015 76.0669C31.5818 75.8579 31.7158 75.6862 31.8987 75.551C32.0836 75.4167 32.3008 75.346 32.5522 75.34C32.8037 75.3339 33.0805 75.3925 33.3847 75.5187C33.8798 75.7226 34.2094 75.9901 34.3709 76.3203C34.5333 76.6514 34.547 77.0078 34.4129 77.3924L33.6 77.0906C33.6479 76.8654 33.6332 76.6837 33.5579 76.5454C33.4816 76.4071 33.3319 76.291 33.1098 76.1991C32.879 76.1042 32.6794 76.079 32.5111 76.1244C32.4025 76.1537 32.3272 76.2203 32.2861 76.3273C32.2489 76.4243 32.2558 76.5232 32.3096 76.6242C32.3761 76.7544 32.5845 76.9462 32.9357 77.2016C33.2869 77.456 33.5354 77.6731 33.6811 77.8508C33.8279 78.0295 33.9198 78.2274 33.956 78.4465C33.9932 78.6655 33.9619 78.9038 33.8612 79.1622C33.7702 79.3965 33.6234 79.5903 33.417 79.7428C33.2126 79.8952 32.9748 79.974 32.7058 79.978C32.4368 79.983 32.1306 79.9134 31.7872 79.772C31.2863 79.5651 30.9488 79.2885 30.7727 78.9391C30.5966 78.5908 30.5722 78.1779 30.6964 77.7004V77.6973ZM34.993 80.9381L36.1504 77.4823L34.9568 77.0573L35.1926 76.3546L38.3897 77.4944L38.1549 78.1971L36.9672 77.7741L35.8099 81.2309L34.994 80.9391L34.993 80.9381ZM38.9365 82.0688L39.3435 80.2647L38.3808 77.4177L39.3641 77.6539L39.9637 79.5863L41.3021 78.1194L42.2666 78.3505L40.1829 80.4727L39.7779 82.2708L38.9375 82.0688H38.9365ZM46.8646 83.2339L45.9372 83.1612L45.6437 82.1335L43.9385 82.0002L43.512 82.9714L42.6012 82.8997L44.5764 78.6423L45.4862 78.714L46.8655 83.2349L46.8646 83.2339ZM45.4197 81.3702L44.9481 79.7004L44.2545 81.2793L45.4197 81.3702ZM47.3234 83.247L47.4525 78.8493L48.288 78.8755L49.955 81.878L50.0421 78.9311L50.8394 78.9563L50.7103 83.354L49.8484 83.3268L48.2058 80.3818L48.1207 83.2733L47.3234 83.248V83.247ZM51.2972 78.824L52.8634 78.7009C53.2166 78.6736 53.4876 78.6797 53.6774 78.7211C53.9318 78.7776 54.1558 78.8957 54.3465 79.0754C54.5393 79.2541 54.6909 79.4813 54.8044 79.7539C54.9169 80.0265 54.9893 80.3687 55.0196 80.7796C55.047 81.141 55.0255 81.455 54.958 81.7236C54.8758 82.0507 54.7437 82.3212 54.5608 82.5343C54.4229 82.6968 54.2311 82.8291 53.9856 82.932C53.8016 83.0088 53.5502 83.0592 53.2333 83.0845L51.621 83.2117L51.2972 78.824ZM52.2129 79.4974L52.4271 82.402L53.066 82.3525C53.3047 82.3334 53.4759 82.3061 53.5796 82.2698C53.7165 82.2233 53.8271 82.1536 53.9122 82.0598C53.9973 81.9669 54.0619 81.8205 54.1039 81.6196C54.1489 81.4187 54.1568 81.1471 54.1323 80.8089C54.1079 80.4697 54.0599 80.2122 53.9875 80.0355C53.9171 79.8579 53.8251 79.7236 53.7136 79.6297C53.6021 79.5368 53.4661 79.4772 53.3017 79.454C53.1814 79.4358 52.9456 79.4399 52.5974 79.4671L52.2139 79.4984L52.2129 79.4974ZM56.5722 78.1951L58.1022 77.8306C58.4476 77.7488 58.7166 77.7125 58.9093 77.7246C59.1686 77.7397 59.4073 77.8225 59.6225 77.9709C59.8387 78.1173 60.0216 78.3182 60.1742 78.5706C60.3249 78.823 60.4462 79.1501 60.5362 79.5509C60.6154 79.9043 60.6408 80.2173 60.6125 80.4939C60.5792 80.8301 60.4873 81.1188 60.3386 81.3571C60.2261 81.5388 60.0549 81.6993 59.8269 81.8397C59.6557 81.9447 59.416 82.0335 59.1059 82.1072L57.5309 82.4828L56.5712 78.1951H56.5722ZM57.5749 78.719L58.2098 81.557L58.833 81.4076C59.0668 81.353 59.2312 81.2985 59.329 81.246C59.4571 81.1784 59.556 81.0926 59.6264 80.9876C59.6978 80.8826 59.7389 80.7271 59.7526 80.5222C59.7663 80.3172 59.736 80.0477 59.6616 79.7165C59.5873 79.3854 59.5022 79.138 59.4063 78.9745C59.3104 78.8099 59.1999 78.6918 59.0766 78.6151C58.9533 78.5414 58.8095 78.504 58.6451 78.506C58.5229 78.507 58.291 78.5474 57.9506 78.6292L57.5749 78.718V78.719ZM61.7121 81.4429L60.3679 77.2673L63.3634 76.2405L63.5904 76.9462L61.4147 77.6923L61.7131 78.6201L63.7362 77.9265L63.9631 78.6322L61.94 79.3258L62.3039 80.4575L64.5589 79.6842L64.7859 80.3899L61.7121 81.4439V81.4429ZM66.4666 79.6559L63.3194 76.296L64.1696 75.8993L66.4568 78.4061L66.1026 74.9967L66.9381 74.607L67.3138 79.2612L66.4666 79.6569V79.6559ZM67.9066 76.6908C67.6884 76.3031 67.5613 75.9437 67.5251 75.6125C67.4987 75.3692 67.5163 75.1259 67.574 74.8836C67.6317 74.6423 67.7266 74.4334 67.8567 74.2547C68.0299 74.0164 68.2666 73.8074 68.568 73.6267C69.1119 73.3006 69.6441 73.2148 70.1675 73.3672C70.6899 73.5207 71.1262 73.9074 71.4754 74.5272C71.8217 75.1431 71.9303 75.7216 71.8031 76.2637C71.675 76.8049 71.3395 77.239 70.7975 77.5641C70.2496 77.8922 69.7155 77.982 69.197 77.8296C68.6785 77.6782 68.249 77.2996 67.9066 76.6908ZM68.6589 76.2062C68.9015 76.6383 69.1823 76.9058 69.5012 77.0139C69.8202 77.1199 70.1283 77.0845 70.4247 76.9068C70.7221 76.7281 70.9041 76.4717 70.9716 76.1365C71.0371 75.8003 70.9462 75.4127 70.6977 74.9715C70.4521 74.5353 70.1753 74.2637 69.8691 74.1618C69.5629 74.0568 69.2557 74.0982 68.9485 74.2829C68.6413 74.4667 68.4545 74.7251 68.3889 75.0543C68.3234 75.3854 68.4134 75.769 68.6599 76.2072L68.6589 76.2062ZM73.9045 75.4985L71.8726 72.503L70.8386 73.2501L70.4247 72.6413L73.1952 70.6393L73.6091 71.2481L72.5799 71.9922L74.6118 74.9876L73.9045 75.4985ZM76.0597 73.9104L73.4046 70.4667L74.0806 69.9114L76.7347 73.3551L76.0587 73.9094L76.0597 73.9104ZM75.8699 71.3016C75.5871 70.9614 75.3984 70.6313 75.3035 70.3132C75.235 70.078 75.2086 69.8357 75.2232 69.5874C75.2379 69.34 75.2937 69.1159 75.3896 68.915C75.5187 68.6484 75.7143 68.3981 75.9775 68.1638C76.4549 67.7408 76.9626 67.5561 77.5036 67.6065C78.0446 67.659 78.5416 67.9569 78.9955 68.501C79.4455 69.0412 79.6549 69.5894 79.6246 70.1457C79.5943 70.7029 79.3419 71.1926 78.8664 71.6136C78.3851 72.0406 77.8763 72.2284 77.3393 72.1769C76.8032 72.1254 76.3131 71.8337 75.8689 71.3006L75.8699 71.3016ZM76.5244 70.6827C76.8404 71.0613 77.1632 71.2723 77.4958 71.3178C77.8274 71.3622 78.1249 71.2693 78.3861 71.0381C78.6473 70.8069 78.7793 70.5202 78.7862 70.178C78.791 69.8357 78.6336 69.4712 78.3107 69.0836C77.9918 68.7009 77.6729 68.4869 77.352 68.4435C77.0321 68.3991 76.7376 68.497 76.4686 68.7363C76.1986 68.9755 76.0607 69.2633 76.0548 69.5995C76.0489 69.9367 76.2054 70.2981 76.5253 70.6827H76.5244ZM80.7936 69.6045L77.713 66.5616L78.2911 65.9387L81.5684 66.6686L79.5043 64.6303L80.056 64.0356L83.1366 67.0785L82.5409 67.7216L79.3213 67.0099L81.3464 69.0099L80.7946 69.6045H80.7936Z" fill="#FEFEFE"/>
<path fill-rule="evenodd" clip-rule="evenodd" d="M45.1672 13.822C44.5098 14.5762 45.1672 15.7816 44.9295 16.139C45.6593 15.7614 45.897 14.5378 45.7327 14.029L45.1663 13.822H45.1672Z" fill="#3E4095"/>
<path fill-rule="evenodd" clip-rule="evenodd" d="M45.4959 12.7671C44.8385 13.5394 45.4774 14.7449 45.2406 15.1033C45.989 14.7267 46.2267 13.4839 46.0624 12.9741L45.4969 12.7671H45.4959Z" fill="#3E4095"/>
<path fill-rule="evenodd" clip-rule="evenodd" d="M38.961 14.2553C38.961 15.0276 38.4493 20.7923 37.3184 22.0927C37.3184 22.0927 39.9657 21.8292 39.8561 14.124L38.962 14.2563L38.961 14.2553Z" fill="#3E4095"/>
<path fill-rule="evenodd" clip-rule="evenodd" d="M39.8552 14.1228C39.8552 14.1228 39.3435 20.2641 38.8328 21.6967C38.8328 21.6967 40.7317 21.1879 40.4754 14.2551L39.8542 14.1228H39.8552Z" fill="#3E4095"/>
<path fill-rule="evenodd" clip-rule="evenodd" d="M40.4753 14.2551C40.4753 14.2551 40.6035 19.4171 40.037 20.4529C40.037 20.4529 40.8588 19.8683 41.0594 18.8325C41.2423 17.7775 41.6796 15.6866 41.1142 14.1228L40.4753 14.2551Z" fill="#3E4095"/>
<path fill-rule="evenodd" clip-rule="evenodd" d="M41.2423 14.3682C41.2423 14.3682 41.3705 17.6463 41.4977 18.9648C41.4977 18.9648 42.5014 18.4378 42.3194 16.139C42.1365 13.8594 41.9359 13.9159 41.9359 13.9159L41.2423 14.3682Z" fill="#3E4095"/>
<path fill-rule="evenodd" clip-rule="evenodd" d="M41.936 13.916C41.936 13.916 42.5748 17.1184 42.3742 18.0422C42.3742 18.0422 43.2694 17.2507 43.2146 15.8756C43.1412 14.5006 42.8311 13.916 42.8311 13.916H41.9369H41.936Z" fill="#3E4095"/>
<path fill-rule="evenodd" clip-rule="evenodd" d="M42.9768 13.9917C43.5608 14.8771 43.2322 16.761 43.013 17.3264C43.8348 16.3652 44.5646 14.764 43.9443 14.0109L42.9768 13.9917Z" fill="#3E4095"/>
<path fill-rule="evenodd" clip-rule="evenodd" d="M44.3092 14.0854C43.8348 14.877 44.6018 15.8563 44.4374 16.2147C45.04 15.7432 45.0762 14.6135 44.8581 14.1803L44.3102 14.0865L44.3092 14.0854Z" fill="#3E4095"/>
<path fill-rule="evenodd" clip-rule="evenodd" d="M39.727 9.54541C39.3797 10.0734 38.2849 12.8992 38.3945 13.7655C38.4493 14.2743 38.6323 14.5762 38.9238 13.7655C39.2163 12.9366 39.7817 10.7892 40.2014 11.0154L39.727 9.54541Z" fill="#3E4095"/>
<path fill-rule="evenodd" clip-rule="evenodd" d="M39.7818 11.2788C38.9972 11.6554 38.2488 14.9709 38.4131 15.4232C38.6137 15.9128 38.6685 16.2521 38.961 15.4232C39.2535 14.6125 39.819 12.4459 40.2201 12.6721L39.7818 11.2778V11.2788Z" fill="#3E4095"/>
<path fill-rule="evenodd" clip-rule="evenodd" d="M40.4753 11.2788C39.6174 11.6938 38.9238 14.9335 39.1243 15.4232C39.3073 15.9128 39.3621 16.2521 39.6536 15.4232C39.9461 14.6125 40.5116 12.4459 40.9312 12.6721L40.4744 11.2778L40.4753 11.2788Z" fill="#3E4095"/>
<path fill-rule="evenodd" clip-rule="evenodd" d="M40.987 7.6807C40.129 8.09463 39.4354 11.3354 39.6173 11.825C39.8179 12.3147 39.8727 12.6539 40.1652 11.825C40.4577 11.0154 42.4476 7.47272 42.8487 7.69887L40.987 7.67969V7.6807Z" fill="#3E4095"/>
<path fill-rule="evenodd" clip-rule="evenodd" d="M41.5525 10.751C40.6946 11.1659 39.6536 15.1972 39.8552 15.6868C40.0381 16.1765 40.0929 16.5157 40.3844 15.6868C40.6769 14.8772 41.2424 12.7106 41.662 12.9367L41.5525 10.751Z" fill="#3E4095"/>
<path fill-rule="evenodd" clip-rule="evenodd" d="M42.0269 11.6929C41.169 12.126 40.4753 15.3667 40.6759 15.8564C40.8588 16.346 40.9136 16.6853 41.2052 15.8564C41.4977 15.0275 42.0631 12.8801 42.4828 13.1053L42.026 11.6929H42.0269Z" fill="#3E4095"/>
<path fill-rule="evenodd" clip-rule="evenodd" d="M42.8859 11.7312C42.028 12.1451 41.3344 15.3859 41.5349 15.8755C41.7178 16.3652 41.7726 16.7044 42.0642 15.8755C42.3567 15.0659 42.9221 12.8993 43.3418 13.1436L42.8849 11.7312H42.8859Z" fill="#3E4095"/>
<path fill-rule="evenodd" clip-rule="evenodd" d="M43.7438 11.6555C42.8858 12.0896 42.1922 15.3294 42.3742 15.819C42.5747 16.3087 42.6295 16.6479 42.922 15.819C43.2145 14.9902 43.78 12.8428 44.1811 13.0689L43.7428 11.6555H43.7438Z" fill="#3E4095"/>
<path fill-rule="evenodd" clip-rule="evenodd" d="M44.6008 11.5989C43.7428 12.0139 43.0493 15.2536 43.2322 15.7433C43.4327 16.2329 43.4875 16.5721 43.7801 15.7433C44.054 14.9336 44.638 12.767 45.0401 13.0113L44.6018 11.5979L44.6008 11.5989Z" fill="#3E4095"/>
<path fill-rule="evenodd" clip-rule="evenodd" d="M45.2044 11.5232C44.3464 11.9563 43.9082 14.877 44.0911 15.3667C44.2917 15.8563 44.3465 16.1955 44.639 15.3667C44.9129 14.5378 45.4969 12.3904 45.898 12.6156L45.2044 11.5232Z" fill="#3E4095"/>
<path fill-rule="evenodd" clip-rule="evenodd" d="M43.1598 7.26587C42.3018 7.43548 40.3482 11.0145 40.4216 11.5051C40.4764 12.0331 40.4402 12.3713 40.9332 11.6555C41.4077 10.9397 44.2369 8.05738 44.5656 8.3966L43.1598 7.26688V7.26587Z" fill="#3E4095"/>
<path fill-rule="evenodd" clip-rule="evenodd" d="M43.3417 7.19019C42.4837 7.60512 41.1141 11.9948 41.2971 12.4844C41.4976 12.9741 41.5524 13.3133 41.8449 12.4844C42.1374 11.6556 44.1273 8.13213 44.5284 8.35827L43.3417 7.19019Z" fill="#3E4095"/>
<path fill-rule="evenodd" clip-rule="evenodd" d="M43.4875 8.39551C42.6295 8.81045 41.9359 12.0502 42.1365 12.5398C42.3194 13.0295 42.3742 13.3687 42.6657 12.5398C42.7567 12.2763 44.2721 8.37632 44.5646 8.54593L43.4875 8.39551Z" fill="#3E4095"/>
<path fill-rule="evenodd" clip-rule="evenodd" d="M43.9991 8.92358C43.1412 9.33852 42.7029 12.1452 42.8859 12.6348C43.0864 13.1436 43.1412 13.4637 43.4337 12.6348C43.7076 11.8241 44.0549 9.78981 44.4746 10.0351L44.0001 8.92358H43.9991Z" fill="#3E4095"/>
<path fill-rule="evenodd" clip-rule="evenodd" d="M44.3093 10.657C43.4513 11.0719 43.4514 12.446 43.6519 12.9366C43.8348 13.4263 43.9072 13.7655 44.1811 12.9366C44.4736 12.1259 44.638 11.2032 45.0391 11.4293L44.3083 10.657H44.3093Z" fill="#3E4095"/>
<path fill-rule="evenodd" clip-rule="evenodd" d="M42.9955 7.02148C43.3242 7.88771 42.4114 8.71658 42.5024 9.09416C41.9917 8.52879 42.1561 7.39907 42.4476 7.02148H42.9955Z" fill="#3E4095"/>
<path fill-rule="evenodd" clip-rule="evenodd" d="M43.6157 7.28491C43.963 8.15114 43.0502 8.98 43.1412 9.35759C42.6305 8.79222 42.7939 7.6625 43.0678 7.28491H43.6157Z" fill="#3E4095"/>
<path fill-rule="evenodd" clip-rule="evenodd" d="M42.2284 7.68066C42.5571 8.52872 41.6444 9.37576 41.754 9.75334C41.2247 9.18797 41.3881 8.05825 41.6806 7.68066H42.2284Z" fill="#3E4095"/>
<path fill-rule="evenodd" clip-rule="evenodd" d="M50.3228 23.1848C50.8345 24.0894 50.5058 25.4645 49.9393 25.7663C49.5382 25.9733 49.684 26.4821 50.268 27.104C50.5781 27.4432 50.2866 26.1247 50.6153 25.8986C50.6887 25.842 50.6153 27.2555 51.3637 27.1989C51.6562 26.7466 51.2727 25.7673 51.3999 25.7855C51.9477 25.9359 52.1307 26.1439 52.4408 25.9178C52.3674 25.9935 50.6887 25.0515 51.3999 23.6008L50.3228 23.1858V23.1848Z" fill="#3E4095"/>
<path fill-rule="evenodd" clip-rule="evenodd" d="M51.9663 22.2622C52.2216 23.5615 53.3897 24.0704 53.9376 24.1834L51.9663 22.2622Z" fill="#3E4095"/>
<path fill-rule="evenodd" clip-rule="evenodd" d="M51.4918 16.3459L56.2561 23.7876C56.2747 24.2964 55.9636 24.4469 55.4167 24.1642C55.179 24.0319 53.1168 23.1849 52.386 20.5287C51.6562 17.8724 51.4918 16.3459 51.4918 16.3459Z" fill="#3E4095"/>
<path fill-rule="evenodd" clip-rule="evenodd" d="M48.9904 18.8325C49.3005 20.5276 51.5829 23.9188 52.7871 24.3146C53.9924 24.7103 49.8846 25.4261 49.0628 21.3191L48.9894 18.8325H48.9904Z" fill="#3E4095"/>
<path fill-rule="evenodd" clip-rule="evenodd" d="M51.2179 21.0557C51.5281 22.7508 52.7881 23.7876 53.9934 24.1834C55.1976 24.5791 51.0907 25.2949 50.269 21.1879L51.2179 21.0557Z" fill="#3E4095"/>
<path fill-rule="evenodd" clip-rule="evenodd" d="M52.477 20.9243C52.6599 21.8854 54.4482 23.7875 55.27 24.052C56.4743 24.4478 52.0387 25.2948 51.2169 21.1878L52.477 20.9243Z" fill="#3E4095"/>
<path fill-rule="evenodd" clip-rule="evenodd" d="M49.1733 22.036C48.3702 24.4661 48.4797 22.0552 48.4797 22.564C47.7313 25.0698 47.2569 21.9987 47.5308 22.7528C47.3478 23.7886 47.476 23.9209 46.7824 23.3374C46.0702 22.7528 45.7053 18.0057 46.5818 16.4419C46.5818 16.4419 49.9041 19.8331 49.1743 22.037L49.1733 22.036Z" fill="#3E4095"/>
<path fill-rule="evenodd" clip-rule="evenodd" d="M51.9116 13.822C52.569 14.5762 51.9116 15.7816 52.1493 16.139C51.4195 15.7614 51.1818 14.5378 51.3462 14.029L51.9126 13.822H51.9116Z" fill="#3E4095"/>
<path fill-rule="evenodd" clip-rule="evenodd" d="M51.5828 12.7671C52.2403 13.5394 51.6014 14.7449 51.8382 15.1033C51.0898 14.7267 50.8521 13.4839 51.0164 12.9741L51.5828 12.7671Z" fill="#3E4095"/>
<path fill-rule="evenodd" clip-rule="evenodd" d="M58.1178 14.2553C58.1178 15.0276 58.6294 20.7923 59.7603 22.0927C59.7603 22.0927 57.1131 21.8292 57.2227 14.124L58.1168 14.2563L58.1178 14.2553Z" fill="#3E4095"/>
<path fill-rule="evenodd" clip-rule="evenodd" d="M57.2237 14.1228C57.2237 14.1228 57.7353 20.2641 58.2459 21.6967C58.2459 21.6967 56.3471 21.1879 56.6034 14.2551L57.2246 14.1228H57.2237Z" fill="#3E4095"/>
<path fill-rule="evenodd" clip-rule="evenodd" d="M56.6024 14.2551C56.6024 14.2551 56.4742 19.4171 57.0407 20.4529C57.0407 20.4529 56.2189 19.8683 56.0183 18.8325C55.8354 17.7775 55.3981 15.6866 55.9635 14.1228L56.6024 14.2551Z" fill="#3E4095"/>
<path fill-rule="evenodd" clip-rule="evenodd" d="M55.8364 14.3682C55.8364 14.3682 55.7083 17.6463 55.5811 18.9648C55.5811 18.9648 54.5774 18.4378 54.7594 16.139C54.9423 13.8594 55.1428 13.9159 55.1428 13.9159L55.8364 14.3682Z" fill="#3E4095"/>
<path fill-rule="evenodd" clip-rule="evenodd" d="M55.1429 13.916C55.1429 13.916 54.504 17.1184 54.7046 18.0422C54.7046 18.0422 53.8104 17.2507 53.8652 15.8756C53.9386 14.5006 54.2487 13.916 54.2487 13.916H55.1429Z" fill="#3E4095"/>
<path fill-rule="evenodd" clip-rule="evenodd" d="M54.1019 13.9917C53.5179 14.8771 53.8466 16.761 54.0657 17.3264C53.244 16.3652 52.5142 14.764 53.1344 14.0109L54.1019 13.9917Z" fill="#3E4095"/>
<path fill-rule="evenodd" clip-rule="evenodd" d="M52.7695 14.0854C53.244 14.877 52.477 15.8563 52.6413 16.2147C52.0387 15.7432 52.0025 14.6135 52.2207 14.1803L52.7685 14.0865L52.7695 14.0854Z" fill="#3E4095"/>
<path fill-rule="evenodd" clip-rule="evenodd" d="M57.3519 9.54541C57.6992 10.0734 58.7938 12.8992 58.6843 13.7655C58.6295 14.2743 58.4466 14.5762 58.155 13.7655C57.8625 12.9366 57.2971 10.7892 56.8774 11.0154L57.3519 9.54541Z" fill="#3E4095"/>
<path fill-rule="evenodd" clip-rule="evenodd" d="M57.2971 11.2788C58.0826 11.6554 58.83 14.9709 58.6667 15.4232C58.4661 15.9128 58.4113 16.2521 58.1188 15.4232C57.8263 14.6125 57.2608 12.4459 56.8597 12.6721L57.298 11.2778L57.2971 11.2788Z" fill="#3E4095"/>
<path fill-rule="evenodd" clip-rule="evenodd" d="M56.6024 11.2788C57.4604 11.6938 58.154 14.9335 57.9535 15.4232C57.7705 15.9128 57.7157 16.2521 57.4242 15.4232C57.1317 14.6125 56.5662 12.4459 56.1465 12.6721L56.6024 11.2778V11.2788Z" fill="#3E4095"/>
<path fill-rule="evenodd" clip-rule="evenodd" d="M56.0917 7.6807C56.9497 8.09463 57.6433 11.3354 57.4604 11.825C57.2598 12.3147 57.205 12.6539 56.9125 11.825C56.62 11.0154 54.6302 7.47272 54.2291 7.69887L56.0908 7.67969L56.0917 7.6807Z" fill="#3E4095"/>
<path fill-rule="evenodd" clip-rule="evenodd" d="M55.5263 10.751C56.3843 11.1659 57.4252 15.1972 57.2237 15.6868C57.0407 16.1765 56.9859 16.5157 56.6944 15.6868C56.4019 14.8772 55.8364 12.7106 55.4167 12.9367L55.5263 10.751Z" fill="#3E4095"/>
<path fill-rule="evenodd" clip-rule="evenodd" d="M55.0518 11.6929C55.9098 12.126 56.6034 15.3667 56.4029 15.8564C56.2199 16.346 56.1651 16.6853 55.8736 15.8564C55.5811 15.0275 55.0156 12.8801 54.5959 13.1053L55.0528 11.6929H55.0518Z" fill="#3E4095"/>
<path fill-rule="evenodd" clip-rule="evenodd" d="M54.1929 11.7312C55.0509 12.1451 55.7445 15.3859 55.5439 15.8755C55.361 16.3652 55.3062 16.7044 55.0147 15.8755C54.7221 15.0659 54.1567 12.8993 53.737 13.1436L54.1939 11.7312H54.1929Z" fill="#3E4095"/>
<path fill-rule="evenodd" clip-rule="evenodd" d="M53.3349 11.6555C54.1929 12.0896 54.8865 15.3294 54.7045 15.819C54.504 16.3087 54.4492 16.6479 54.1567 15.819C53.8642 14.9902 53.2987 12.8428 52.8967 13.0689L53.3349 11.6555Z" fill="#3E4095"/>
<path fill-rule="evenodd" clip-rule="evenodd" d="M52.477 11.5989C53.335 12.0139 54.0285 15.2536 53.8456 15.7433C53.645 16.2329 53.5903 16.5721 53.2977 15.7433C53.0238 14.9336 52.4398 12.767 52.0377 13.0113L52.476 11.5979L52.477 11.5989Z" fill="#3E4095"/>
<path fill-rule="evenodd" clip-rule="evenodd" d="M51.8753 11.5232C52.7333 11.9563 53.1716 14.877 52.9886 15.3667C52.7881 15.8563 52.7333 16.1955 52.4408 15.3667C52.1669 14.5378 51.5828 12.3904 51.1817 12.6156L51.8753 11.5232Z" fill="#3E4095"/>
<path fill-rule="evenodd" clip-rule="evenodd" d="M53.919 7.26587C54.777 7.43548 56.7306 11.0145 56.6573 11.5051C56.6025 12.0331 56.6386 12.3713 56.1466 11.6555C55.6711 10.9397 52.8419 8.05738 52.5132 8.3966L53.919 7.26688V7.26587Z" fill="#3E4095"/>
<path fill-rule="evenodd" clip-rule="evenodd" d="M53.7371 7.19019C54.595 7.60512 55.9646 11.9948 55.7817 12.4844C55.5811 12.9741 55.5263 13.3133 55.2338 12.4844C54.9413 11.6556 52.9515 8.13213 52.5504 8.35827L53.7371 7.19019Z" fill="#3E4095"/>
<path fill-rule="evenodd" clip-rule="evenodd" d="M53.5912 8.39551C54.4492 8.81045 55.1428 12.0502 54.9423 12.5398C54.7593 13.0295 54.7046 13.3687 54.413 12.5398C54.3221 12.2763 52.8067 8.37632 52.5142 8.54593L53.5912 8.39551Z" fill="#3E4095"/>
<path fill-rule="evenodd" clip-rule="evenodd" d="M53.0796 8.92358C53.9376 9.33852 54.3759 12.1452 54.193 12.6348C53.9924 13.1436 53.9376 13.4637 53.6451 12.6348C53.3712 11.8241 53.0239 9.78981 52.6042 10.0351L53.0787 8.92358H53.0796Z" fill="#3E4095"/>
<path fill-rule="evenodd" clip-rule="evenodd" d="M52.7695 10.657C53.6274 11.0719 53.6275 12.446 53.4269 12.9366C53.244 13.4263 53.1716 13.7655 52.8976 12.9366C52.6051 12.1259 52.4408 11.2032 52.0397 11.4293L52.7705 10.657H52.7695Z" fill="#3E4095"/>
<path fill-rule="evenodd" clip-rule="evenodd" d="M54.0833 7.02148C53.7546 7.88771 54.6674 8.71658 54.5764 9.09416C55.0871 8.52879 54.9237 7.39907 54.6312 7.02148H54.0833Z" fill="#3E4095"/>
<path fill-rule="evenodd" clip-rule="evenodd" d="M53.4631 7.28491C53.1158 8.15114 54.0285 8.98 53.9376 9.35759C54.4492 8.79222 54.2848 7.6625 54.0109 7.28491H53.4631Z" fill="#3E4095"/>
<path fill-rule="evenodd" clip-rule="evenodd" d="M54.8503 7.68066C54.5216 8.52872 55.4344 9.37576 55.3248 9.75334C55.855 9.18797 55.6907 8.05825 55.3982 7.68066H54.8503Z" fill="#3E4095"/>
<path fill-rule="evenodd" clip-rule="evenodd" d="M45.491 11.0919C44.7074 10.8466 44.5773 9.77949 44.7074 9.18383C44.8571 8.53568 45.3042 6.78607 44.3347 6.38324C43.4209 6.01576 39.6721 5.40294 38.7584 11.4948C38.7584 11.4948 40.5673 8.08137 42.3771 7.71388C44.2045 7.34639 43.8133 7.83705 43.6822 8.44886C43.5511 9.06168 43.0296 11.0041 43.9434 11.4948C44.8385 11.9673 44.95 11.9673 45.4538 12.2126L45.491 11.0919Z" fill="#3E4095"/>
<path fill-rule="evenodd" clip-rule="evenodd" d="M50.9802 15.197C50.9802 15.197 52.1669 16.0824 51.7834 15.6867C51.3999 15.2909 50.633 13.3313 51.1446 13.0678C51.6562 12.8043 52.2951 12.4086 53.1706 11.8997C54.0648 11.3727 53.5541 9.28086 53.426 8.6216C53.2978 7.96235 52.9143 7.43433 54.7036 7.83009C56.6749 8.28238 58.245 11.8987 58.245 11.8987C57.3509 5.34247 53.6813 6.00274 52.7872 6.39749C51.9106 6.79325 52.2941 8.75285 52.4223 9.41211C52.5504 10.0532 52.2941 11.3717 51.5281 11.6352C50.7611 11.8987 50.3776 10.4479 50.3776 10.0532C50.3776 9.65744 50.3776 8.3581 50.3776 8.3581C50.3776 8.3581 50.8893 8.8851 50.8893 8.3581C50.8893 7.83009 49.8855 6.26725 49.8855 6.26725L50.8893 6.00375C47.9867 3.38489 45.942 5.60799 45.942 5.60799C45.942 5.60799 45.5771 6.13601 45.449 6.66301C46.6533 6.32379 47.0915 6.98305 47.2745 7.37881C47.475 7.77456 47.1463 9.41312 46.1974 10.3177C45.2475 11.2405 45.2113 12.8427 45.3756 13.9159C45.5947 15.3475 45.9059 15.932 47.3841 17.4575C48.0963 18.1925 48.4611 19.9067 48.4611 20.2086C48.4611 20.3974 49.7574 22.6205 50.5792 23.4676C51.4009 24.3156 51.0908 23.7876 51.5291 23.2788C51.9674 22.7507 53.1168 19.5867 52.4232 18.3611L50.9812 15.196L50.9802 15.197Z" fill="#3E4095"/>
<path fill-rule="evenodd" clip-rule="evenodd" d="M47.2382 5.66455C47.4212 5.75844 47.6041 6.02295 47.7675 6.1542C47.9505 6.26727 48.1334 6.28646 48.2968 6.22992C48.5345 6.1542 48.5521 5.87152 48.7174 5.7019C48.242 5.73926 47.7313 5.64537 47.2382 5.7019C47.1835 5.72109 47.3116 5.68272 47.2568 5.72109C47.293 5.72109 47.2754 5.7019 47.293 5.7019C47.2744 5.68272 47.2568 5.66455 47.2382 5.66455Z" fill="#3E4095"/>
<path fill-rule="evenodd" clip-rule="evenodd" d="M50.4871 24.9749C50.9616 25.2767 49.3738 24.4852 49.3005 25.8603C49.6292 25.6906 50.2856 25.408 50.45 25.6341L50.4862 24.9749H50.4871Z" fill="#3E4095"/>
<path fill-rule="evenodd" clip-rule="evenodd" d="M46.5809 26.0298C46.5994 26.1428 48.8808 25.1635 47.9867 25.3705C47.0925 25.5593 47.5298 23.4301 47.6579 23.1847L46.891 22.9778C47.0191 24.6729 45.6495 25.3705 44.8649 25.3705L44.4267 25.5593C43.7878 26.0298 43.8612 26.2186 44.1713 26.6708C44.1713 26.1812 44.4638 26.0489 44.591 25.8985C44.3904 26.7466 45.2846 27.3301 45.5947 27.3675C45.9234 27.3866 44.9011 26.1428 45.6309 25.635L46.5798 26.0308L46.5809 26.0298Z" fill="#3E4095"/>
<path fill-rule="evenodd" clip-rule="evenodd" d="M14.9518 30.0603H83.2256V32.133H14.9518V30.0603Z" fill="#3E4095"/>
<path fill-rule="evenodd" clip-rule="evenodd" d="M14.9518 45.2141H83.2256V47.2858H14.9518V45.2141Z" fill="#3E4095"/>
<path fill-rule="evenodd" clip-rule="evenodd" d="M42.4769 26.0452H55.6995V32.133H42.4769V26.0452Z" fill="#3E4095"/>
<path fill-rule="evenodd" clip-rule="evenodd" d="M27.8378 58.9424H49.55V59.9792H27.8378V58.9424Z" fill="#3E4095"/>
<path fill-rule="evenodd" clip-rule="evenodd" d="M27.8378 61.0151H48.7204V62.051H27.8378V61.0151Z" fill="#3E4095"/>
<path fill-rule="evenodd" clip-rule="evenodd" d="M30.0967 63.6057H49.55V64.6415H30.0967V63.6057Z" fill="#3E4095"/>
<path fill-rule="evenodd" clip-rule="evenodd" d="M35.7453 65.9368H57.8331V66.9726H35.7453V65.9368Z" fill="#3E4095"/>
<path fill-rule="evenodd" clip-rule="evenodd" d="M40.0117 68.0085H66.8696V69.0454H40.0117V68.0085Z" fill="#3E4095"/>
<path fill-rule="evenodd" clip-rule="evenodd" d="M31.3078 59.3311H32.7322V64.5122H31.3078V59.3311Z" fill="#3E4095"/>
<path fill-rule="evenodd" clip-rule="evenodd" d="M34.0715 59.3311H35.443V64.5122H34.0715V59.3311Z" fill="#3E4095"/>
<path fill-rule="evenodd" clip-rule="evenodd" d="M37.5023 55.0576H38.8162V64.5124H37.5023V55.0576Z" fill="#3E4095"/>
<path fill-rule="evenodd" clip-rule="evenodd" d="M40.2797 53.7622H41.5945V64.5123H40.2797V53.7622Z" fill="#3E4095"/>
<path fill-rule="evenodd" clip-rule="evenodd" d="M43.0571 52.7263H44.3719V64.5122H43.0571V52.7263Z" fill="#3E4095"/>
<path fill-rule="evenodd" clip-rule="evenodd" d="M45.8345 51.3018H47.1493V64.5122H45.8345V51.3018Z" fill="#3E4095"/>
<path fill-rule="evenodd" clip-rule="evenodd" d="M48.6118 50.6538H49.9266V64.5124H48.6118V50.6538Z" fill="#3E4095"/>
<path fill-rule="evenodd" clip-rule="evenodd" d="M34.95 55.4463H36.3215V59.4604H34.95V55.4463Z" fill="#3E4095"/>
<path fill-rule="evenodd" clip-rule="evenodd" d="M61.6817 55.7046H63.0533V62.1801H61.6817V55.7046Z" fill="#3E4095"/>
<path fill-rule="evenodd" clip-rule="evenodd" d="M66.4509 55.7046H67.8224V62.1801H66.4509V55.7046Z" fill="#3E4095"/>
<path fill-rule="evenodd" clip-rule="evenodd" d="M68.3341 50.3953H69.7047V62.1802H68.3341V50.3953Z" fill="#3E4095"/>
<path fill-rule="evenodd" clip-rule="evenodd" d="M71.5967 53.2444H72.9672V63.6058H71.5967V53.2444Z" fill="#3E4095"/>
<path fill-rule="evenodd" clip-rule="evenodd" d="M73.7303 52.8557H75.906V56.4821H73.7303V52.8557Z" fill="#3E4095"/>
<path fill-rule="evenodd" clip-rule="evenodd" d="M75.1107 48.4519H77.2864V52.0783H75.1107V48.4519Z" fill="#3E4095"/>
<path fill-rule="evenodd" clip-rule="evenodd" d="M61.5985 62.0508H69.7047V65.5197L68.6079 67.7257L61.5985 68.397V62.0508Z" fill="#3E4095"/>
<path fill-rule="evenodd" clip-rule="evenodd" d="M59.0883 64.5122H62.7285V66.8433H59.0883V64.5122Z" fill="#3E4095"/>
<path fill-rule="evenodd" clip-rule="evenodd" d="M53.064 62.0508H61.7238V63.2169H53.064V62.0508Z" fill="#3E4095"/>
<path fill-rule="evenodd" clip-rule="evenodd" d="M48.7967 59.3311L49.7065 59.0918L57.8332 62.0509V66.1952H50.178L48.7967 64.5123V59.3311Z" fill="#3E4095"/>
<path fill-rule="evenodd" clip-rule="evenodd" d="M24.1986 55.2524H36.3724V56.8708H24.1986V55.2524Z" fill="#3E4095"/>
<path fill-rule="evenodd" clip-rule="evenodd" d="M28.4825 50.1357H29.7974V56.0933H28.4825V50.1357Z" fill="#3E4095"/>
<path fill-rule="evenodd" clip-rule="evenodd" d="M30.49 50.1357H31.8048V56.0933H30.49V50.1357Z" fill="#3E4095"/>
<path fill-rule="evenodd" clip-rule="evenodd" d="M32.4984 50.1357H33.8132V56.0933H32.4984V50.1357Z" fill="#3E4095"/>
<path d="M25.8186 55.8894V50.2579C25.8186 49.9278 25.9497 49.6269 26.161 49.4088L26.163 49.4068C26.3743 49.1888 26.6658 49.0535 26.9857 49.0535H34.6731C34.994 49.0535 35.2865 49.1888 35.4978 49.4068C35.7091 49.6249 35.8402 49.9257 35.8402 50.2579V55.8894H34.8824V50.2579C34.8824 50.1993 34.859 50.1448 34.8208 50.1055C34.7827 50.0661 34.7308 50.0418 34.6741 50.0418H26.9867C26.929 50.0418 26.8761 50.0661 26.838 50.1044C26.8008 50.1438 26.7773 50.1973 26.7773 50.2569V55.8884H25.8196L25.8186 55.8894Z" fill="#3E4095"/>
<path fill-rule="evenodd" clip-rule="evenodd" d="M35.4489 55.2776L49.5304 49.5452V51.2473L35.4489 56.9797V55.2776Z" fill="#3E4095"/>
<path fill-rule="evenodd" clip-rule="evenodd" d="M65.2916 55.9389L49.5304 49.5452V51.2473L65.2916 57.642V55.9389Z" fill="#3E4095"/>
<path fill-rule="evenodd" clip-rule="evenodd" d="M45.9763 68.5273H47.9182V72.5415H45.9763V68.5273Z" fill="#3E4095"/>
<path fill-rule="evenodd" clip-rule="evenodd" d="M52.0005 68.5273H53.9425V72.5415H52.0005V68.5273Z" fill="#3E4095"/>
<path d="M21.1395 33.3434H26.1434L29.7719 39.6422V35.7866C29.7719 35.4534 29.7504 35.2474 29.7083 35.1657C29.6506 35.0415 29.5723 34.9547 29.4696 34.9072C29.3698 34.8577 29.1752 34.8335 28.8846 34.8335H28.282V33.3444H33.3896V34.8335H32.8261C32.5444 34.8335 32.3419 34.8628 32.2206 34.9183C32.0993 34.9769 32.0171 35.0526 31.9691 35.1505C31.9231 35.2484 31.8997 35.4595 31.8997 35.7845V44.1348H29.3405L24.7572 36.1803V41.7471C24.7572 42.0672 24.7787 42.2701 24.8237 42.36C24.8658 42.4468 24.948 42.5154 25.0595 42.5689C25.1739 42.6184 25.3745 42.6457 25.6562 42.6457H26.2471V44.1348H21.1395V42.6457H21.6697C21.9642 42.6457 22.1638 42.6245 22.2724 42.5801C22.3819 42.5356 22.469 42.4609 22.5326 42.3529C22.5961 42.2449 22.6294 42.0813 22.6294 41.8643V35.6715C22.6294 35.4332 22.5991 35.2595 22.5414 35.1485C22.4807 35.0374 22.4015 34.9557 22.3017 34.9082C22.2019 34.8588 22.0356 34.8345 21.7988 34.8345H21.1385V33.3454L21.1395 33.3434ZM34.4912 33.3434H40.5253V34.8325H39.9735C39.6556 34.8325 39.4433 34.8567 39.3405 34.9062C39.2378 34.9536 39.1586 35.0334 39.1106 35.1394C39.0588 35.2444 39.0344 35.4483 39.0344 35.7462V41.7229C39.0344 42.048 39.0559 42.256 39.095 42.3519C39.1371 42.4448 39.2104 42.5104 39.3102 42.5528C39.4345 42.6134 39.6194 42.6457 39.8669 42.6457H40.5243V44.1348H34.4902V42.6457H34.9813C35.3325 42.6457 35.5624 42.6245 35.669 42.5801C35.7747 42.5356 35.854 42.467 35.9048 42.3711C35.9567 42.2762 35.9801 42.0854 35.9801 41.8007V35.8007C35.9801 35.4645 35.9557 35.2454 35.9048 35.1404C35.853 35.0344 35.7688 34.9526 35.6505 34.8951C35.5654 34.8557 35.3658 34.8345 35.0449 34.8345H34.4902V33.3454L34.4912 33.3434ZM41.8303 33.3434H52.1591L53.5707 36.7719L51.9624 37.2767C51.6895 36.7144 51.3716 36.2621 51.0077 35.9218C50.6447 35.5786 50.2416 35.3514 49.8024 35.2383C49.3631 35.1273 48.8485 35.0718 48.2635 35.0718H46.3735V37.7815H46.9878C47.4486 37.7815 47.7607 37.7522 47.9211 37.6916C48.0816 37.6331 48.197 37.5382 48.2665 37.412C48.3359 37.2848 48.3731 37.0344 48.3731 36.6568V36.2449H49.9726V40.8082H48.3731V40.3408C48.3731 40.0238 48.3301 39.7916 48.2459 39.6462C48.1608 39.5008 48.0463 39.4009 47.9006 39.3504C47.7519 39.2969 47.4281 39.2716 46.9253 39.2716H46.3735V41.7512C46.3735 42.0127 46.3882 42.1742 46.4185 42.2317C46.4459 42.2873 46.5065 42.3317 46.5916 42.361C46.6768 42.3923 46.8607 42.4084 47.1463 42.4084H48.1853C48.9611 42.4084 49.6116 42.3105 50.1448 42.1177C50.6779 41.9218 51.1534 41.6088 51.5682 41.1777C51.9859 40.7446 52.3078 40.2297 52.5318 39.6351L54.1528 40.1217L52.5289 44.1358H41.8303V42.6467H42.1395C42.5543 42.6467 42.8331 42.6204 42.9759 42.57C43.1177 42.5164 43.2185 42.4276 43.2752 42.2974C43.3056 42.2206 43.3202 42.0016 43.3202 41.6401V35.7563C43.3202 35.4362 43.2958 35.2252 43.2449 35.1273C43.197 35.0294 43.1177 34.9557 43.0091 34.9082C42.9025 34.8588 42.6942 34.8345 42.3821 34.8345H41.8313V33.3454L41.8303 33.3434ZM64.2419 33.3434L65.3141 36.9587L63.6599 37.3676C63.1081 36.5074 62.4849 35.8784 61.7884 35.4796C61.0889 35.0809 60.3464 34.8799 59.5588 34.8799C59.0501 34.8799 58.6501 34.9698 58.3566 35.1515C58.0631 35.3312 57.9173 35.5321 57.9173 35.7542C57.9173 36.0077 58.0503 36.2429 58.3174 36.4589C58.5776 36.678 59.057 36.8708 59.7555 37.0425L62.1337 37.6442C63.4515 37.9743 64.3907 38.4125 64.9542 38.9567C65.5088 39.5089 65.7877 40.148 65.7877 40.8799C65.7877 41.8128 65.3601 42.5992 64.509 43.2434C63.5581 43.9541 62.3734 44.3075 60.9617 44.3075C60.3043 44.3075 59.7017 44.2358 59.15 44.0934C58.6021 43.948 58.0259 43.7047 57.4291 43.3594L57.0388 44.1338H55.7181L54.8455 39.9501L56.4997 39.6018C56.8901 40.4549 57.4966 41.1676 58.3204 41.7381C59.147 42.3115 60.0529 42.5962 61.0371 42.5962C61.4822 42.5962 61.849 42.5457 62.1425 42.4488C62.4331 42.3509 62.6542 42.2136 62.8029 42.0369C62.9516 41.8622 63.024 41.6805 63.024 41.4927C63.024 41.1838 62.8547 40.9173 62.5123 40.6952C62.1641 40.471 61.5556 40.2509 60.6888 40.0349L58.6226 39.5089C58.3076 39.4322 57.8831 39.2868 57.3509 39.0738C56.8148 38.8597 56.4029 38.6346 56.1153 38.4054C55.8306 38.1732 55.5909 37.8744 55.4031 37.5129C55.2123 37.1485 55.1184 36.7679 55.1184 36.3671C55.1184 35.7936 55.3004 35.2686 55.6633 34.7881C56.0272 34.3045 56.5751 33.9168 57.3049 33.618C58.0347 33.3191 58.8408 33.1687 59.7281 33.1687C60.7974 33.1687 61.7639 33.407 62.6268 33.8845L62.9721 33.3434H64.241H64.2419ZM66.2445 33.3434H72.1328V34.8325H71.945C71.5693 34.8325 71.3296 34.8456 71.2269 34.8719C71.1213 34.8961 71.0332 34.9516 70.9638 35.0334C70.8914 35.1152 70.8581 35.202 70.8581 35.2888C70.8581 35.3969 70.9246 35.619 71.0606 35.9541L73.25 41.2938L75.5764 35.8108C75.6918 35.5392 75.7457 35.3514 75.7457 35.2484C75.7457 35.1031 75.6908 34.9981 75.5823 34.9314C75.4727 34.8658 75.2428 34.8315 74.8887 34.8315H74.513V33.3424H79.2929V34.8315C78.8957 34.8315 78.6326 34.8709 78.4966 34.9476C78.2902 35.0667 78.0818 35.3545 77.8754 35.8138L74.1676 44.1328H71.3815L67.6072 35.7613C67.4566 35.4282 67.3382 35.2141 67.2531 35.1223C67.1719 35.0324 67.0565 34.9587 66.9049 34.9082C66.7532 34.8588 66.5351 34.8315 66.2445 34.8315V33.3424V33.3434Z" fill="#3E4095"/>
<path d="M49.0882 0.70752C58.8946 0.70752 67.7716 4.80947 74.198 11.4414C80.6243 18.0734 84.5992 27.2354 84.5992 37.3544C84.5992 47.4745 80.6243 56.6355 74.198 63.2675C67.7716 69.8994 58.8936 74.0014 49.0882 74.0014C39.2818 74.0014 30.4049 69.8994 23.9785 63.2675C17.5521 56.6355 13.5773 47.4735 13.5773 37.3544C13.5773 27.2344 17.5521 18.0734 23.9785 11.4414C30.4049 4.80947 39.2828 0.70752 49.0882 0.70752ZM72.844 12.8397C66.7649 6.56614 58.3653 2.6853 49.0882 2.6853C39.8111 2.6853 31.4115 6.56614 25.3324 12.8397C19.2533 19.1133 15.4928 27.7816 15.4928 37.3554C15.4928 46.9293 19.2533 55.5976 25.3324 61.8712C31.4115 68.1447 39.8111 72.0256 49.0882 72.0256C58.3653 72.0256 66.7649 68.1447 72.844 61.8712C78.9231 55.5976 82.6837 46.9293 82.6837 37.3554C82.6837 27.7816 78.9231 19.1133 72.844 12.8397Z" fill="#3E4095"/>
</svg>
